<svg width="777" height="96" viewBox="0 0 777 96" fill="none" xmlns="http://www.w3.org/2000/svg">
<g opacity="0.5">
<mask id="path-1-inside-1" fill="white">
<path fill-rule="evenodd" clip-rule="evenodd" d="M0 95.0016C0 95.0016 192.477 -117.457 393.059 95.0016C393.059 95.0016 569.327 -118.752 777 95.0016"/>
</mask>
<path fill-rule="evenodd" clip-rule="evenodd" d="M0 95.0016C0 95.0016 192.477 -117.457 393.059 95.0016C393.059 95.0016 569.327 -118.752 777 95.0016" fill="black" fill-opacity="0.01"/>
<path d="M393.059 95.0016L392.332 95.6881L393.109 96.512L393.83 95.6378L393.059 95.0016ZM0 95.0016C0.741097 95.673 0.741497 95.6726 0.74263 95.6713C0.743986 95.6698 0.74585 95.6678 0.748557 95.6648C0.753972 95.6589 0.762309 95.6497 0.77356 95.6374C0.796061 95.6128 0.830212 95.5755 0.875926 95.5258C0.967354 95.4265 1.10503 95.2778 1.28825 95.0821C1.6547 94.6907 2.20331 94.1114 2.92846 93.3637C4.37878 91.8681 6.53514 89.6987 9.35251 87.0111C14.9875 81.6355 23.2652 74.1881 33.8255 65.9118C54.9504 49.3557 85.1856 29.5016 121.652 16.2699C158.113 3.04031 200.783 -3.56263 246.812 6.34844C292.836 16.2584 342.302 42.6967 392.332 95.6881L393.786 94.3151C343.524 41.0775 293.712 14.4012 247.233 4.39325C200.759 -5.61363 157.701 1.06206 120.97 14.3898C84.2448 27.7154 53.8244 47.6971 32.5918 64.3376C21.9732 72.6596 13.6466 80.1506 7.972 85.564C5.13457 88.2708 2.95979 90.4585 1.49269 91.9713C0.759131 92.7278 0.202454 93.3156 -0.171711 93.7152C-0.358794 93.915 -0.500253 94.0678 -0.595384 94.1711C-0.64295 94.2228 -0.678934 94.2621 -0.703249 94.2887C-0.715406 94.302 -0.724646 94.3121 -0.730958 94.3191C-0.734113 94.3225 -0.736649 94.3253 -0.738228 94.3271C-0.740029 94.3291 -0.741097 94.3302 0 95.0016ZM393.059 95.0016C393.83 95.6378 393.831 95.6374 393.832 95.6362C393.833 95.6347 393.834 95.6327 393.837 95.6297C393.842 95.6238 393.849 95.6146 393.86 95.6023C393.88 95.5776 393.911 95.5401 393.953 95.4903C394.037 95.3905 394.163 95.2411 394.331 95.0444C394.667 94.651 395.171 94.0686 395.837 93.3167C397.171 91.8128 399.156 89.6311 401.759 86.928C406.964 81.5215 414.636 74.0308 424.491 65.7065C444.205 49.0539 472.632 29.0857 507.509 15.7783C542.377 2.47401 583.68 -4.16915 629.183 5.80113C674.686 15.7713 724.474 42.373 776.283 95.6985L777.717 94.3048C725.689 40.7534 675.567 13.9167 629.611 3.84747C583.657 -6.22166 541.954 0.494786 506.796 13.9097C471.646 27.3215 443.026 47.4321 423.2 64.1786C413.285 72.5537 405.563 80.0927 400.318 85.5408C397.695 88.265 395.691 90.467 394.341 91.9899C393.666 92.7513 393.154 93.3431 392.81 93.7455C392.638 93.9467 392.508 94.1006 392.421 94.2048C392.377 94.2568 392.344 94.2965 392.322 94.3233C392.311 94.3368 392.302 94.347 392.297 94.3541C392.294 94.3576 392.291 94.3604 392.29 94.3622C392.288 94.3642 392.287 94.3654 393.059 95.0016Z" fill="white" mask="url(#path-1-inside-1)"/>
</g>
</svg>
